<svg width="13" height="12" viewBox="0 0 13 12" fill="none" xmlns="http://www.w3.org/2000/svg">
<path fill="#8B8072" fill-rule="evenodd" clip-rule="evenodd" d="M9.65368 0.00472572C9.10397 0.0579591 8.70149 0.546744 8.75472 1.09646L9.75007 1.00007C8.75472 1.09646 8.75471 1.09637 8.75472 1.09646L8.75496 1.09888L8.75542 1.10357L8.75704 1.11959L8.76306 1.17672C8.76833 1.22541 8.77613 1.29477 8.78656 1.38042C8.80737 1.55132 8.83892 1.78918 8.88208 2.05851C8.9654 2.57847 9.10255 3.28552 9.31323 3.84982C9.55424 4.49539 9.98287 5.19912 10.3154 5.70176C10.3672 5.78008 10.4177 5.85516 10.4663 5.9262C10.439 5.95822 10.4112 5.99111 10.383 6.0248C10.0483 6.42524 9.59769 7.01265 9.33807 7.58987C9.07327 8.1786 8.93337 8.92062 8.8572 9.44749C8.81718 9.72434 8.79108 9.96953 8.77493 10.1459C8.76682 10.2344 8.76115 10.3064 8.75745 10.3572L8.75329 10.4173L8.7522 10.4345L8.75189 10.4397L8.75179 10.4415C8.75178 10.4416 8.75172 10.4426 9.75007 10.5001L8.75172 10.4426C8.72 10.994 9.14126 11.4667 9.69263 11.4984C10.2438 11.5301 10.7164 11.1092 10.7484 10.5581L10.7485 10.5565L10.7491 10.5467L10.7522 10.5026C10.7551 10.4628 10.7597 10.4033 10.7666 10.3283C10.7804 10.1779 10.8027 9.96831 10.8366 9.73366C10.9083 9.23755 11.0185 8.72956 11.1621 8.41027C11.3029 8.0971 11.6024 7.6845 11.9175 7.30755C12.0665 7.12925 12.2047 6.97578 12.3054 6.86722C12.3555 6.81315 12.3958 6.77076 12.4229 6.74261L12.453 6.71151L12.4597 6.70466L12.4604 6.70394C12.8124 6.34854 12.8478 5.78756 12.5431 5.39088C12.5431 5.39087 12.5431 5.39089 12.5431 5.39088L12.5415 5.38883L12.5341 5.37908L12.5024 5.33705C12.4743 5.29945 12.4327 5.24342 12.3813 5.17245C12.2781 5.03011 12.1364 4.82962 11.9834 4.59837C11.6655 4.11767 11.3441 3.5714 11.1869 3.15032C11.0494 2.78186 10.9365 2.23891 10.8569 1.74205C10.8186 1.50299 10.7904 1.29073 10.7719 1.13863C10.7626 1.06278 10.7559 1.00241 10.7515 0.961747L10.7467 0.916211L10.7456 0.905615L10.7454 0.903682C10.6921 0.354041 10.2033 -0.0485031 9.65368 0.00472572Z" />
<path fill="#8B8072" fill-rule="evenodd" clip-rule="evenodd" d="M0.677763 0.253573C0.265478 0.293498 -0.0363797 0.660087 0.00354539 1.07237L0.750053 1.00008C0.0035454 1.07237 0.00353824 1.0723 0.00354539 1.07237L0.0041822 1.07884L0.00573049 1.09417L0.0115999 1.14986C0.0167557 1.19755 0.024427 1.26578 0.0347096 1.35021C0.0552372 1.51876 0.0863601 1.75341 0.128915 2.01897C0.211774 2.53604 0.345888 3.22257 0.547422 3.7624C0.777959 4.3799 1.19318 5.06395 1.52385 5.56385C1.61528 5.70207 1.70286 5.83008 1.78206 5.9434C1.71681 6.01768 1.64702 6.09878 1.57481 6.18515C1.24251 6.58266 0.810833 7.14822 0.566056 7.69243C0.316405 8.24748 0.180232 8.96024 0.104616 9.48328C0.0653535 9.75485 0.0397292 9.99559 0.0238708 10.1687C0.0159215 10.2555 0.0103749 10.3259 0.00677048 10.3754L0.0027536 10.4334L0.00172482 10.4497L0.00143634 10.4545L0.00134622 10.4561C0.00134073 10.4562 0.00129139 10.457 0.750053 10.5001L0.00134622 10.4561C-0.0224444 10.8696 0.293447 11.2251 0.706977 11.2488C1.12046 11.2726 1.47494 10.9568 1.49881 10.5433L1.49893 10.5412L1.49961 10.5305L1.5028 10.4844C1.5058 10.4433 1.5106 10.3822 1.51762 10.3055C1.5317 10.1518 1.55449 9.93783 1.58918 9.6979C1.66146 9.19794 1.77529 8.66071 1.93405 8.30773C2.08975 7.96155 2.40808 7.52711 2.72566 7.14721C2.87806 6.9649 3.01919 6.80817 3.122 6.69727C3.17326 6.64197 3.21463 6.59847 3.24264 6.56934L3.27412 6.53683L3.28148 6.52933L3.2828 6.52798C3.54685 6.26141 3.57337 5.84061 3.34475 5.5431L3.34285 5.54062L3.33496 5.53025L3.3023 5.4869C3.27346 5.44838 3.23116 5.39132 3.17887 5.31921C3.07409 5.1747 2.9303 4.9712 2.77492 4.73631C2.45514 4.25287 2.12037 3.68691 1.95268 3.23777C1.80599 2.84483 1.6901 2.28136 1.61002 1.78162C1.5711 1.53877 1.54252 1.32332 1.52371 1.16886C1.51432 1.09179 1.50741 1.03029 1.50291 0.98863L1.49796 0.941644L1.49682 0.930371L1.49658 0.927969C1.49658 0.927935 1.49658 0.928002 1.49658 0.927969M0.677763 0.253573C1.09001 0.213651 1.4566 0.515735 1.49658 0.927969L0.677763 0.253573Z" />
</svg>
