<svg width="13" height="12" viewBox="0 0 13 12" fill="none" xmlns="http://www.w3.org/2000/svg">
<path fill="#EEE3D1" fill-rule="evenodd" clip-rule="evenodd" d="M3.09634 0.00472572C3.64605 0.057959 4.04853 0.546744 3.99529 1.09646L2.99995 1.00007C3.99529 1.09646 3.9953 1.09637 3.99529 1.09646L3.99506 1.09888L3.99459 1.10357L3.99298 1.11959L3.98695 1.17672C3.98169 1.22541 3.97389 1.29477 3.96346 1.38042C3.94264 1.55132 3.9111 1.78918 3.86794 2.05851C3.78462 2.57847 3.64746 3.28552 3.43679 3.84982C3.19578 4.49539 2.76714 5.19912 2.43466 5.70176C2.38286 5.78008 2.33228 5.85516 2.28372 5.9262C2.31104 5.95822 2.33884 5.99111 2.367 6.0248C2.70175 6.42524 3.15232 7.01265 3.41194 7.58987C3.67674 8.1786 3.81664 8.92062 3.89281 9.44749C3.93284 9.72434 3.95893 9.96953 3.97509 10.1459C3.98319 10.2344 3.98886 10.3064 3.99257 10.3572L3.99672 10.4173L3.99781 10.4345L3.99813 10.4397L3.99823 10.4415C3.99824 10.4416 3.9983 10.4426 2.99995 10.5001L3.9983 10.4426C4.03002 10.994 3.60876 11.4667 3.05738 11.4984C2.50621 11.5301 2.03365 11.1092 2.00163 10.5581L2.00154 10.5565L2.00092 10.5467L1.99786 10.5026C1.99496 10.4628 1.99029 10.4033 1.98342 10.3283C1.96964 10.1779 1.94732 9.96831 1.91339 9.73366C1.84167 9.23755 1.73157 8.72956 1.58795 8.41027C1.44709 8.0971 1.14766 7.6845 0.83254 7.30755C0.683487 7.12925 0.545308 6.97578 0.444665 6.86722C0.394538 6.81315 0.354227 6.77076 0.327155 6.74261L0.297042 6.71151L0.290326 6.70466L0.289619 6.70394C-0.0624075 6.34854 -0.0978046 5.78756 0.206925 5.39088C0.206919 5.39089 0.206931 5.39087 0.206925 5.39088L0.208489 5.38883L0.215915 5.37908L0.247579 5.33705C0.275734 5.29945 0.317273 5.24342 0.368735 5.17245C0.471934 5.03011 0.613604 4.82962 0.766571 4.59837C1.08454 4.11767 1.4059 3.5714 1.56311 3.15032C1.70066 2.78186 1.81351 2.23891 1.89313 1.74205C1.93144 1.50299 1.9596 1.29073 1.97813 1.13863C1.98737 1.06278 1.99414 1.00241 1.99854 0.961747L2.00334 0.916211L2.00441 0.905615L2.0046 0.903682C2.05791 0.354041 2.54667 -0.0485031 3.09634 0.00472572Z" />
<path fill="#EEE3D1" fill-rule="evenodd" clip-rule="evenodd" d="M12.0723 0.253543C12.4845 0.293467 12.7864 0.660056 12.7465 1.07234L12 1.00005C12.7465 1.07234 12.7465 1.07227 12.7465 1.07234L12.7458 1.07881L12.7443 1.09414L12.7384 1.14983C12.7333 1.19752 12.7256 1.26575 12.7153 1.35018C12.6948 1.51873 12.6637 1.75338 12.6211 2.01894C12.5382 2.536 12.4041 3.22254 12.2026 3.76237C11.9721 4.37987 11.5568 5.06392 11.2262 5.56382C11.1347 5.70204 11.0472 5.83005 10.968 5.94337C11.0332 6.01765 11.103 6.09875 11.1752 6.18512C11.5075 6.58263 11.9392 7.14819 12.184 7.6924C12.4336 8.24745 12.5698 8.96021 12.6454 9.48325C12.6847 9.75482 12.7103 9.99555 12.7261 10.1687C12.7341 10.2555 12.7396 10.3259 12.7432 10.3754L12.7473 10.4334L12.7483 10.4497L12.7486 10.4545L12.7487 10.456C12.7487 10.4561 12.7487 10.457 12 10.5001L12.7487 10.456C12.7725 10.8696 12.4566 11.225 12.043 11.2488C11.6296 11.2726 11.2751 10.9567 11.2512 10.5433L11.2511 10.5412L11.2504 10.5305L11.2472 10.4844C11.2442 10.4432 11.2394 10.3822 11.2324 10.3055C11.2183 10.1518 11.1955 9.9378 11.1608 9.69787C11.0886 9.19791 10.9747 8.66068 10.816 8.3077C10.6603 7.96152 10.3419 7.52708 10.0244 7.14718C9.87195 6.96487 9.73083 6.80814 9.62801 6.69724C9.57675 6.64194 9.53539 6.59844 9.50737 6.56931L9.47589 6.5368L9.46854 6.52929L9.46722 6.52795C9.20317 6.26138 9.17664 5.84058 9.40527 5.54307L9.40716 5.54059L9.41506 5.53022L9.44772 5.48687C9.47656 5.44835 9.51886 5.39129 9.57115 5.31918C9.67592 5.17467 9.81972 4.97117 9.9751 4.73627C10.2949 4.25284 10.6297 3.68688 10.7973 3.23773C10.944 2.8448 11.0599 2.28133 11.14 1.78159C11.1789 1.53874 11.2075 1.32329 11.2263 1.16883C11.2357 1.09176 11.2426 1.03026 11.2471 0.988599L11.2521 0.941614L11.2532 0.930341L11.2534 0.927938C11.2534 0.927972 11.2534 0.927904 11.2534 0.927938M12.0723 0.253543C11.66 0.213621 11.2934 0.515705 11.2534 0.927938L12.0723 0.253543Z"/>
</svg>
