<svg width="100" height="45" viewBox="0 0 100 45" fill="none" xmlns="http://www.w3.org/2000/svg">
<rect x="1" y="21" width="98" height="23" fill="#E1D7C6" stroke="#8B8072" stroke-width="2"/>
<mask id="path-2-inside-1_358_18" fill="white">
<path d="M65 20.0525L35 20.0525L35 0.0524927L65 0.0524902L65 20.0525Z"/>
</mask>
<path d="M65 20.0525L35 20.0525L35 0.0524927L65 0.0524902L65 20.0525Z" fill="#E1D7C6"/>
<path d="M35 0.0524927L35 -1.94751L33 -1.94751L33 0.0524929L35 0.0524927ZM65 0.0524902L67 0.0524901L67 -1.94751L65 -1.94751L65 0.0524902ZM37 20.0525L37 0.0524926L33 0.0524929L33 20.0525L37 20.0525ZM35 2.05249L65 2.05249L65 -1.94751L35 -1.94751L35 2.05249ZM63 0.0524904L63 20.0525L67 20.0525L67 0.0524901L63 0.0524904Z" fill="#8B8072" mask="url(#path-2-inside-1_358_18)"/>
</svg>
