<svg width="100" height="41" viewBox="0 0 100 41" fill="none" xmlns="http://www.w3.org/2000/svg">
<rect x="1" y="21.0491" width="98" height="18.0493" fill="#E1D7C6" stroke="#8B8072" stroke-width="2"/>
<mask id="path-2-inside-1_358_18" fill="white">
<path d="M66.5 20.2468L33.5 20.2468L33.5 0.0984024L66.5 0.0984001L66.5 20.2468Z"/>
</mask>
<path d="M66.5 20.2468L33.5 20.2468L33.5 0.0984024L66.5 0.0984001L66.5 20.2468Z" fill="#E1D7C6"/>
<path d="M33.5 0.0984024L33.5 -1.9016L31.5 -1.9016L31.5 0.0984025L33.5 0.0984024ZM66.5 0.0984001L68.5 0.0984L68.5 -1.9016L66.5 -1.9016L66.5 0.0984001ZM35.5 20.2468L35.5 0.0984022L31.5 0.0984025L31.5 20.2468L35.5 20.2468ZM33.5 2.0984L66.5 2.0984L66.5 -1.9016L33.5 -1.9016L33.5 2.0984ZM64.5 0.0984003L64.5 20.2468L68.5 20.2468L68.5 0.0984L64.5 0.0984003Z" fill="#8B8072" mask="url(#path-2-inside-1_358_18)"/>
</svg>
